<?xml version="1.0" encoding="UTF-8" standalone="no"?>
<!-- Generator: Adobe Illustrator 22.1.0, SVG Export Plug-In . SVG Version: 6.00 Build 0)  -->

<svg
   xmlns:dc="http://purl.org/dc/elements/1.1/"
   xmlns:cc="http://creativecommons.org/ns#"
   xmlns:rdf="http://www.w3.org/1999/02/22-rdf-syntax-ns#"
   xmlns:svg="http://www.w3.org/2000/svg"
   xmlns="http://www.w3.org/2000/svg"
   xmlns:sodipodi="http://sodipodi.sourceforge.net/DTD/sodipodi-0.dtd"
   xmlns:inkscape="http://www.inkscape.org/namespaces/inkscape"
   version="1.1"
   id="Layer_1"
   x="0px"
   y="0px"
   viewBox="0 0 267 79"
   style="enable-background:new 0 0 267 79;"
   xml:space="preserve"
   sodipodi:docname="PaulaAyresFerreira_logo_vetor.svg"
   inkscape:version="0.92.3 (2405546, 2018-03-11)"><metadata
   id="metadata79"><rdf:RDF><cc:Work
       rdf:about=""><dc:format>image/svg+xml</dc:format><dc:type
         rdf:resource="http://purl.org/dc/dcmitype/StillImage" /></cc:Work></rdf:RDF></metadata><defs
   id="defs77" /><sodipodi:namedview
   pagecolor="#ffffff"
   bordercolor="#666666"
   borderopacity="1"
   objecttolerance="10"
   gridtolerance="10"
   guidetolerance="10"
   inkscape:pageopacity="0"
   inkscape:pageshadow="2"
   inkscape:window-width="1920"
   inkscape:window-height="1016"
   id="namedview75"
   showgrid="false"
   inkscape:zoom="6.6291193"
   inkscape:cx="132.55"
   inkscape:cy="36.958742"
   inkscape:window-x="0"
   inkscape:window-y="27"
   inkscape:window-maximized="1"
   inkscape:current-layer="Layer_1" />
<style
   type="text/css"
   id="style2">
	.st0{fill:#006838;}
</style>
<g
   id="g16"
   transform="matrix(1.0592461,0,0,1.2621623,-4.7905282,-11.021631)">
	<path
   class="st0"
   d="m 20.7,20.1 c -3.1,0.2 -5.4,1.8 -7.1,4.2 -2.1,3.1 -2.7,6.9 -2.7,10.4 0,0.9 0,1.7 0.1,2.6 -0.9,-0.3 -1.7,-0.7 -2.2,-1.1 -2,-1.5 -1.3,-3.1 -1.2,-4 0,-1 -0.5,-1.4 -1.2,-1.4 -0.8,0 -1.6,0.6 -1.6,1.6 0,0.8 0.6,2.1 1.2,2.9 1.3,1.5 3.2,2.4 5.1,3 0.3,2.7 1.2,7.2 2.1,8.5 0.2,0.3 0.5,0.4 0.8,0.4 0.7,0 1.5,-0.8 1.2,-1.6 -0.4,-1 -1.2,-4.4 -1.6,-6.8 0.8,0.1 1.6,0.1 2.3,0.1 6.9,-0.4 12.7,-4.2 12.6,-11 -0.1,-4.5 -3.3,-8.1 -7.8,-7.8 z M 16,37.8 c -0.9,0.1 -1.7,0 -2.5,0 -0.1,-1.2 -0.2,-2.4 -0.2,-3.5 0,-5.1 2.2,-13.1 7.8,-13.3 3.2,-0.1 4.8,3.5 4.9,6.5 0.1,5.2 -3.8,9.8 -10,10.3 z"
   id="path4"
   inkscape:connector-curvature="0"
   style="fill:#006838" />
	<path
   class="st0"
   d="m 77.9,34.4 c -0.1,0 -0.3,0.1 -0.4,0.5 -0.2,0.6 -1.7,4.5 -2.6,4.5 -1.3,0 -1.5,-6.3 -1.5,-7.1 0,-0.7 -0.3,-0.9 -0.7,-0.9 -0.3,0 -0.7,0.2 -0.9,0.5 -0.5,-0.8 -1.4,-1.4 -2.5,-1.4 -0.5,0 -1.1,0.1 -1.6,0.4 -1.8,0.9 -2.8,2.9 -3.3,4.9 -0.6,1.8 -2,5.6 -4.2,5.6 -1.9,0 -2.6,-3.5 -2.6,-5.8 2.4,-3.6 5.2,-7.9 5.2,-12.1 0,-1.4 -0.5,-2.5 -1.9,-2.6 -2.2,0 -3.5,3 -4,4.6 -0.9,2.9 -1.4,6.2 -1.4,9.2 0,0.7 0,1.4 0.1,2.2 -0.6,1.5 -1.5,3.3 -2.3,3.3 -1.1,0 -1.7,-3 -2,-6.4 -0.1,-1.3 -0.5,-1.7 -1.1,-1.7 -0.4,0 -1,0.3 -1.3,1.2 -1.7,4.5 -3.5,7.9 -4.9,7.9 -0.7,0 -1,-1.5 -1,-3.4 0,-1.5 0.2,-3.3 0.5,-4.7 0.1,-0.6 -0.3,-0.9 -0.8,-1 -0.4,0 -0.9,0.2 -1.1,0.8 -0.2,0.7 -0.4,1.5 -0.5,2.4 -0.3,0.9 -1.7,4.4 -2.5,4.4 -1.3,0 -1.5,-6.3 -1.5,-7.1 0,-0.7 -0.3,-0.9 -0.7,-0.9 -0.3,0 -0.7,0.2 -0.9,0.5 -0.5,-0.8 -1.4,-1.4 -2.5,-1.4 -0.5,0 -1.1,0.1 -1.6,0.4 -2.5,1.2 -3.6,4.7 -3.7,7.3 -0.1,2.3 0.7,5.1 3,5.2 2.8,0 4.2,-4.4 4.8,-7.3 0.2,2.3 0.8,5.3 2.5,5.3 1.3,0 2.4,-2 3.1,-3.8 0,1.1 0.1,2.1 0.1,2.7 0.4,2 1.5,2.6 2.4,2.6 2.5,0 5,-6 5.9,-8.5 0.2,2.6 0.6,7.5 2.9,7.5 1.6,0 2.8,-1.8 3.5,-3.6 0.5,2.6 1.7,4.8 3.8,4.8 2,0 3.5,-2 4.4,-4 0.1,2.1 1,4.3 3,4.4 2.8,0 4.2,-4.4 4.8,-7.3 0.2,2.3 0.8,5.3 2.5,5.3 2,0 3.6,-5.2 3.9,-6.4 -0.2,-0.8 -0.2,-1 -0.4,-1 z m -46.7,7.3 c -1.7,0 -1.6,-2.8 -1.6,-4 0.1,-2.1 1.1,-6.3 3.3,-6.2 0.8,0 1.2,0.8 1.4,1.6 0.1,0.5 0.2,0.9 0.3,1.3 -0.3,2.6 -1.6,7.3 -3.4,7.3 z M 58.1,28.5 c 0.2,-1.3 1.3,-6.5 2.6,-6.5 0.6,0 0.8,0.6 0.8,1.4 0,3.8 -2.1,7.8 -4.1,10.8 0,-1.9 0.3,-4 0.7,-5.7 z m 9.6,13.2 c -1.7,0 -1.6,-2.8 -1.6,-4 0.1,-2.1 1.1,-6.3 3.3,-6.2 0.8,0 1.2,0.8 1.4,1.6 0.1,0.5 0.2,0.9 0.3,1.3 -0.4,2.6 -1.6,7.3 -3.4,7.3 z"
   id="path6"
   inkscape:connector-curvature="0"
   style="fill:#006838" />
	<path
   class="st0"
   d="m 155.8,33.3 c -0.1,-0.1 -0.4,0 -0.6,0.2 -1.5,2 -3.8,3.4 -6,4.5 -1.6,-1.3 -3.4,-2.8 -3.4,-4.6 0,-1.4 1.5,-2.8 3,-2.8 0.8,0 1.5,0.7 1.5,1.2 0,0.1 0,0.3 -0.2,0.3 -0.6,0.3 -1,0.9 -1,1.4 0,0.7 0.7,1 1.2,1 0.4,0 0.9,-0.1 1.2,-0.5 0.4,-0.4 0.5,-1.1 0.5,-1.7 -0.1,-1.8 -1.6,-2.6 -3.1,-2.6 -2.7,0 -5.2,2.4 -5.2,5 0,0.2 0,0.3 0.1,0.5 0,0 0,0.1 0,0.1 -1,4 -3.6,5.9 -5,6.4 -1.4,0.4 -2.8,-0.4 -3,-2.3 -0.1,-0.9 -0.1,-1.9 0,-2.8 h 0.2 c 1.1,0 4.2,-1.3 5.2,-3 0.2,-0.4 0.4,-0.9 0.4,-1.5 0,-0.3 0,-0.6 -0.1,-0.9 -0.3,-0.8 -1.2,-1.2 -2,-1.2 -1.5,0 -2.9,1.2 -3.8,2.2 -0.4,0.5 -0.8,1.1 -1.1,1.6 -0.5,0.7 -1.2,1.4 -1.8,1.4 -0.9,0 -1,-2.4 -1,-2.9 -0.1,-1.1 -0.4,-2.3 -1.5,-2.3 -0.1,0 -0.3,0 -0.5,0 -2.2,0.5 -4.2,7.9 -4.5,8.4 -0.5,0 -0.2,-3.8 -0.5,-5.9 -0.1,-0.7 -0.6,-0.8 -0.9,-0.8 -1,0 -1,1.2 -1,2.2 0,0.7 0,1.3 0.1,1.9 -0.8,1.1 -1.8,1.9 -2.8,2.7 -0.1,-2.2 -0.4,-4.5 -0.7,-6.4 -0.2,-1 -0.7,-1.4 -1.3,-1.4 -0.4,0 -0.9,0.2 -1.1,0.8 -1,2.4 -3.8,8.1 -5.3,8.1 -0.9,0 -1.2,-0.6 -1.3,-1.8 -0.2,-1.8 0.3,-3.3 0.5,-4.9 0.1,-0.6 -0.1,-1 -0.6,-1.2 -0.7,-0.1 -1.1,0.3 -1.3,0.8 -0.3,1.1 -0.5,2.5 -0.6,3.8 -0.6,2.5 -2.5,7.8 -3.8,7.8 -0.9,0 -1.5,-1.1 -1.8,-3.6 -0.2,-1 -0.5,-3.8 -0.9,-7.4 0.8,0.1 1.5,0.2 2,0.4 0.7,0.3 0.6,1.6 1.4,1.6 0.8,0 1,-0.7 1,-0.9 0,-0.8 -1.7,-1.6 -4.4,-1.8 l -0.1,-1.6 c -0.3,-3.2 -0.7,-7 -1.5,-9 -0.3,-0.8 -1,-1.3 -1.8,-1.4 -1.6,-0.1 -3.1,2.8 -4,4.8 -0.9,1.9 -2.2,5 -3.5,7.8 -1.8,0.1 -3.3,0.1 -4.1,-0.2 -0.8,-0.3 -0.7,-0.9 -1.3,-1.2 -0.2,-0.1 -0.4,-0.2 -0.6,-0.2 -0.8,0 -1.4,0.9 -1.4,1.6 0,1.3 1.2,1.6 2.4,1.6 0.7,0 2.5,-0.1 4.4,-0.4 -0.6,1.2 -1.1,2.3 -1.6,3.1 -2.3,3.8 -3.1,4.3 -4.6,3.6 -1.1,-0.5 -2.2,0.7 -2,1.9 0.2,1.2 1.2,1.8 2.6,1.3 1.8,-0.6 3.7,-3.4 5.4,-7 0.5,-1 1,-2.1 1.4,-3.1 2.9,-0.4 5.5,-0.8 8.2,-0.9 0.3,3.6 0.6,7.6 1.1,9.3 0.5,1.8 1,3.8 2.9,3.8 1.9,0 3.9,-4.2 4.9,-7.6 0.3,1.6 1.1,2.8 2.4,2.7 2.9,-0.2 5.7,-7 6.4,-8.5 0.5,1.9 0.8,4.5 0.8,7.1 -4.5,3.6 -8.4,6.4 -8.6,10.8 -0.1,2.6 1.3,5.5 4,5.4 6.8,0 6.6,-11.8 6.7,-15.4 0,-0.4 0,-0.8 0,-1.3 1.1,-0.9 2,-1.8 2.8,-2.6 0.1,1.7 0.2,3.1 0.3,4.4 0.1,0.7 0.4,1.9 1.2,1.8 1.1,-0.1 1.4,-2.3 1.5,-3 0.7,-3.4 2.5,-8.4 3.4,-8.4 0.3,0 0.2,1.9 0.6,3.3 0.3,1 0.8,1.6 1.8,1.6 0.8,0 1.5,-0.5 2.2,-1.1 -0.2,0.8 -0.4,1.7 -0.4,2.6 0,1.8 0.3,2.7 0.8,3.5 0.6,1 1.7,1.8 2.9,1.8 1.6,0.1 3.1,-1 4.1,-2.1 1.4,-1.4 2.5,-3.2 3,-5.2 0.7,1 1.8,2 2.9,2.8 -1.1,0.6 -2.6,1.5 -2.6,2.8 0,0.9 0.9,1.7 2.7,1.7 1.7,0 4.2,-0.8 4.2,-2.8 0,-1 -0.9,-1.6 -1.5,-2.2 2.2,-1.2 4.9,-2.9 6,-4.8 -0.4,0.1 -0.4,-0.1 -0.6,-0.2 z m -18.4,-0.8 c 0.5,-0.8 1.2,-1.6 1.7,-1.6 0.6,0 0.9,0.5 0.9,1 0,0.7 -0.4,1.5 -0.8,2.2 -0.8,1.3 -2.1,1.6 -3.2,1.7 0.3,-1.2 0.8,-2.4 1.4,-3.3 z m -39.2,0.1 c -1.9,0.1 -4.3,0.4 -6.5,0.5 1.3,-2.9 2.4,-5.7 3.5,-7.8 0.3,-0.7 1.5,-3 2.2,-3 1,0 1.5,4.2 1.8,7.9 l 0.2,2.3 c -0.3,0.1 -0.8,0.1 -1.2,0.1 z m 15.1,22.5 c -1.6,0 -2.6,-1.8 -2.6,-3.7 0,-3.5 3.3,-7.2 7.3,-10.1 -0.2,2.9 -0.5,13.8 -4.7,13.8 z m 34,-12.3 c -1.1,0 -1.5,-0.4 -1.5,-1 0,-0.9 1.4,-1.7 2,-2 0.5,0.4 1.4,1 1.4,1.7 0.1,0.9 -1.2,1.3 -1.9,1.3 z"
   id="path8"
   inkscape:connector-curvature="0"
   style="fill:#006838" />
	<path
   class="st0"
   d="m 180.1,25.9 c -0.4,0.3 -0.6,0.7 -0.6,1.2 0,0.9 0.8,1.6 1.8,1.5 1.4,-0.1 2.2,-2 2.1,-3.5 -0.2,-2.7 -2.5,-4.8 -5.8,-4.7 -3.3,0 -6.1,1.7 -7.9,4.2 -2.3,3.2 -2.8,7.2 -2.8,10.8 -0.5,0 -1,0.1 -1.4,0.1 -0.8,0 -1.6,-0.1 -2.1,-0.4 -0.6,-0.4 -1,-1.2 -1.8,-1.3 -0.8,0 -1.4,0.7 -1.4,1.4 0,1.6 2,1.9 3.1,1.9 1,0 2.3,-0.2 3.7,-0.5 0.2,2.7 1.1,8.7 2.3,10.4 0.2,0.3 0.5,0.4 0.9,0.4 0.7,0 1.5,-0.8 1.2,-1.6 -0.3,-0.7 -0.8,-2.7 -1.3,-4.7 -0.3,-1.5 -0.6,-3 -0.7,-5.1 1.8,-0.4 3.7,-0.8 5.2,-0.8 1.3,0 2.5,0.3 3.1,0.8 0.5,0.5 0.6,1.6 1.4,1.6 0.6,0 1,-0.5 1,-1.1 0,-1.1 -2.2,-2.1 -5.6,-2.1 -1.5,0 -3.4,0.3 -5.1,0.6 0,-1.9 0.1,-3.9 0.6,-5.7 1,-3.8 3.6,-8.2 7.7,-8.2 2.2,0 3.8,1.5 3.8,3.3 0,0.8 -0.8,1 -1.4,1.5 z"
   id="path10"
   inkscape:connector-curvature="0"
   style="fill:#006838" />
	<path
   class="st0"
   d="m 226.4,26.7 c 0.8,0 1.6,-0.9 1.6,-1.8 0,-1 -0.6,-1.4 -1.3,-1.4 -0.8,0 -1.6,1 -1.6,1.8 0,1 0.7,1.4 1.3,1.4 z"
   id="path12"
   inkscape:connector-curvature="0"
   style="fill:#006838" />
	<path
   class="st0"
   d="m 255.3,34.4 c -0.1,0 -0.3,0.1 -0.4,0.5 -0.2,0.6 -1.7,4.5 -2.6,4.5 -1.3,0 -1.5,-6.3 -1.5,-7.1 0,-0.7 -0.3,-0.9 -0.7,-0.9 -0.3,0 -0.7,0.2 -0.9,0.5 -0.5,-0.8 -1.4,-1.4 -2.5,-1.4 -0.5,0 -1.1,0.1 -1.6,0.4 -1.1,0.5 -1.9,1.5 -2.5,2.7 -0.5,0.7 -1.4,1.8 -2.1,1.8 -0.9,0 -1,-2.4 -1,-2.9 -0.1,-1.1 -0.4,-2.3 -1.5,-2.3 -0.1,0 -0.3,0 -0.5,0 -2.2,0.5 -4.2,7.9 -4.5,8.4 -0.5,0 -0.2,-3.8 -0.5,-5.9 -0.1,-0.7 -0.6,-0.8 -0.9,-0.8 -1,0 -1,1.2 -1,2.2 0,0.8 0,1.6 0.1,2.3 -0.6,2 -1.7,4.9 -2.8,5 -1.9,0.2 -1.3,-6.4 -0.8,-8.4 0.2,-0.7 -0.5,-1.2 -1.1,-1.2 -0.4,0 -0.8,0.3 -0.9,0.8 -0.1,0.5 -0.3,1.6 -0.4,2.8 0,0.1 0,0.1 -0.1,0.2 -1,4 -3.6,5.9 -5,6.4 -1.4,0.4 -2.8,-0.4 -3,-2.3 -0.1,-0.9 -0.1,-1.9 0,-2.8 h 0.2 c 1.1,0 4.2,-1.3 5.2,-3 0.2,-0.4 0.4,-0.9 0.4,-1.5 0,-0.3 0,-0.6 -0.1,-0.9 -0.3,-0.8 -1.2,-1.2 -2,-1.2 -1.5,0 -2.9,1.2 -3.8,2.2 -0.4,0.5 -0.8,1.1 -1.1,1.6 -0.5,0.7 -1.2,1.4 -1.8,1.4 -0.9,0 -1,-2.4 -1,-2.9 -0.1,-1.1 -0.4,-2.3 -1.5,-2.3 -0.1,0 -0.3,0 -0.5,0 -2.2,0.5 -4.2,7.9 -4.5,8.4 -0.5,0 -0.2,-3.8 -0.5,-5.9 -0.1,-0.7 -0.6,-0.8 -0.9,-0.8 -1,0 -1,1 -1,1.9 -0.5,0.7 -1.3,1.6 -1.9,1.6 -0.9,0 -1,-2.4 -1,-2.9 -0.1,-1.1 -0.4,-2.3 -1.5,-2.3 -0.1,0 -0.3,0 -0.5,0 -2.2,0.5 -4.2,7.9 -4.5,8.4 -0.5,0 -0.2,-3.8 -0.5,-5.9 -0.1,-0.7 -0.6,-0.8 -0.9,-0.8 -1,0 -1,1.2 -1,2.2 0,0.7 0,1.3 0.1,1.9 -1.1,3.7 -3.5,5.5 -4.8,5.9 -1.4,0.4 -2.8,-0.4 -3,-2.3 -0.1,-0.9 -0.1,-1.9 0,-2.8 h 0.2 c 1.1,0 4.2,-1.3 5.2,-3 0.2,-0.4 0.4,-0.9 0.4,-1.5 0,-0.3 0,-0.6 -0.1,-0.9 -0.3,-0.8 -1.2,-1.2 -2,-1.2 -1.5,0 -2.9,1.2 -3.8,2.2 -1.5,1.8 -2.1,3.8 -2.2,5.9 0,1.8 0.3,2.7 0.8,3.5 0.6,1 1.7,1.8 2.9,1.8 1.6,0.1 3.1,-1 4.1,-2.1 1,-1 1.9,-2.3 2.5,-3.6 0.1,1.3 0.2,2.5 0.3,3.6 0.1,0.7 0.4,1.9 1.2,1.8 1.1,-0.1 1.4,-2.3 1.5,-3 0.7,-3.4 2.5,-8.4 3.4,-8.4 0.3,0 0.2,1.9 0.6,3.3 0.3,1 0.8,1.6 1.8,1.6 1.1,0 2.2,-1 3,-2 0.1,2.8 0.2,4.8 0.4,6.7 0.1,0.7 0.4,1.9 1.2,1.8 1.1,-0.1 1.4,-2.3 1.5,-3 0.7,-3.4 2.5,-8.4 3.4,-8.4 0.3,0 0.2,1.9 0.6,3.3 0.3,1 0.8,1.6 1.8,1.6 0.8,0 1.5,-0.5 2.2,-1.1 -0.2,0.8 -0.4,1.7 -0.4,2.6 0,1.8 0.3,2.7 0.8,3.5 0.6,1 1.7,1.8 2.9,1.8 1.6,0.1 3.1,-1 4.1,-2.1 1,-1 1.9,-2.3 2.5,-3.7 0,2.8 0.7,5.4 3,5.1 1.6,-0.2 2.7,-2.4 3.4,-4.5 0.1,1.1 0.1,2.1 0.3,3.1 0.1,0.7 0.4,1.9 1.2,1.8 1.1,-0.1 1.4,-2.3 1.5,-3 0.7,-3.4 2.5,-8.4 3.4,-8.4 0.3,0 0.2,1.9 0.6,3.3 0.3,1 0.8,1.6 1.8,1.6 0.9,0 1.7,-0.6 2.4,-1.3 -0.3,1 -0.4,1.9 -0.5,2.8 -0.1,2.3 0.7,5.1 3,5.2 2.8,0 4.2,-4.4 4.8,-7.3 0.2,2.3 0.8,5.3 2.5,5.3 2,0 3.6,-5.2 3.9,-6.4 -0.8,-0.6 -0.8,-0.8 -1,-0.8 z M 218,32.5 c 0.5,-0.8 1.2,-1.6 1.7,-1.6 0.6,0 0.9,0.5 0.9,1 0,0.7 -0.4,1.5 -0.8,2.2 -0.8,1.3 -2.1,1.6 -3.2,1.7 0.2,-1.2 0.8,-2.4 1.4,-3.3 z m -32.7,0 c 0.5,-0.8 1.2,-1.6 1.7,-1.6 0.6,0 0.9,0.5 0.9,1 0,0.7 -0.4,1.5 -0.8,2.2 -0.8,1.3 -2.1,1.6 -3.2,1.7 0.3,-1.2 0.8,-2.4 1.4,-3.3 z m 59.8,9.2 c -1.7,0 -1.6,-2.8 -1.6,-4 0.1,-2.1 1.1,-6.3 3.3,-6.2 0.8,0 1.2,0.8 1.4,1.6 0.1,0.5 0.2,0.9 0.3,1.3 -0.3,2.6 -1.6,7.3 -3.4,7.3 z"
   id="path14"
   inkscape:connector-curvature="0"
   style="fill:#006838" />
</g>
<g
   id="g70"
   transform="matrix(1.0592461,0,0,1.2621623,-4.7905282,-11.021631)">
	<path
   d="m 19.6,59.7 c 0,0.8 0,1.3 0.1,2 v 0 c -0.2,-0.5 -0.5,-1 -0.9,-1.6 l -1.5,-2.4 h -0.7 v 4.8 h 0.6 v -2.1 c 0,-0.8 0,-1.4 -0.1,-2 v 0 c 0.2,0.5 0.6,1.1 0.9,1.6 l 1.5,2.4 h 0.6 v -4.8 h -0.6 v 2.1 z"
   id="path18"
   inkscape:connector-curvature="0" />
	<path
   d="m 25.5,60.6 c 0,1.1 -0.5,1.5 -1.2,1.5 -0.6,0 -1.1,-0.5 -1.1,-1.5 v -2.8 h -0.6 v 2.8 c 0,1.5 0.7,2.1 1.7,2.1 1,0 1.8,-0.6 1.8,-2.1 v -2.8 h -0.6 z"
   id="path20"
   inkscape:connector-curvature="0" />
	<polygon
   points="28,58.3 29.5,58.3 29.5,62.5 30.1,62.5 30.1,58.3 31.6,58.3 31.6,57.7 28,57.7 "
   id="polygon22" />
	<path
   d="m 35.5,60.2 v 0 c 0.5,-0.2 0.9,-0.6 0.9,-1.3 0,-0.4 -0.1,-0.7 -0.4,-0.9 -0.3,-0.3 -0.7,-0.4 -1.4,-0.4 -0.4,0 -0.9,0 -1.2,0.1 v 4.7 H 34 v -2.1 h 0.6 c 0.6,0 0.8,0.3 1,0.9 0.1,0.6 0.2,1 0.3,1.1 h 0.6 c -0.1,-0.2 -0.2,-0.6 -0.4,-1.3 0,-0.3 -0.2,-0.6 -0.6,-0.8 z M 34.7,60 h -0.6 v -1.8 c 0.1,0 0.3,-0.1 0.6,-0.1 0.7,0 1.1,0.3 1.1,0.9 0,0.6 -0.4,1 -1.1,1 z"
   id="path24"
   inkscape:connector-curvature="0" />
	<rect
   x="38.599998"
   y="57.700001"
   width="0.60000002"
   height="4.8000002"
   id="rect26" />
	<path
   d="m 44,58.2 c 0.4,0 0.7,0.1 1,0.2 l 0.2,-0.5 c -0.2,-0.1 -0.5,-0.2 -1.1,-0.2 -1.5,0 -2.5,1 -2.5,2.5 0,1.4 0.8,2.3 2,2.4 l -0.3,0.5 c 0.3,0 0.6,0.1 0.6,0.3 0,0.1 -0.1,0.2 -0.3,0.2 -0.2,0 -0.3,0 -0.4,-0.1 l -0.1,0.3 C 43,64 43.2,64 43.4,64 c 0.4,0 0.7,-0.2 0.7,-0.6 0,-0.3 -0.2,-0.5 -0.5,-0.5 l 0.2,-0.3 c 0.6,0 1,-0.1 1.3,-0.2 L 45,61.9 c -0.3,0.1 -0.6,0.2 -1,0.2 -1.2,0 -1.8,-0.8 -1.8,-1.9 -0.1,-1.3 0.6,-2 1.8,-2 z"
   id="path28"
   inkscape:connector-curvature="0" />
	<path
   d="m 48.5,57.7 -1.6,4.8 h 0.6 L 48,61 h 1.7 l 0.5,1.5 h 0.7 l -1.6,-4.8 z m -0.4,2.8 0.5,-1.4 c 0.1,-0.3 0.2,-0.6 0.2,-0.9 v 0 c 0.1,0.3 0.1,0.6 0.3,0.9 l 0.5,1.4 z"
   id="path30"
   inkscape:connector-curvature="0" />
	<path
   d="m 48.5,57.1 c 0.1,0 0.2,0.1 0.3,0.1 0.2,0.1 0.3,0.1 0.4,0.1 0.3,0 0.5,-0.2 0.5,-0.7 h -0.3 c 0,0.2 -0.1,0.3 -0.2,0.3 -0.1,0 -0.2,-0.1 -0.3,-0.1 -0.1,-0.1 -0.3,-0.1 -0.4,-0.1 -0.3,0 -0.5,0.3 -0.5,0.7 h 0.3 c 0.1,-0.2 0.1,-0.3 0.2,-0.3 z"
   id="path32"
   inkscape:connector-curvature="0" />
	<path
   d="m 54.8,57.6 c -1.3,0 -2.2,1 -2.2,2.5 0,1.5 0.9,2.4 2.2,2.4 1.2,0 2.2,-0.9 2.2,-2.5 0,-1.4 -0.9,-2.4 -2.2,-2.4 z m 0,4.5 c -1,0 -1.5,-0.9 -1.5,-1.9 0,-1.1 0.5,-2 1.5,-2 1,0 1.5,1 1.5,2 0,1 -0.6,1.9 -1.5,1.9 z"
   id="path34"
   inkscape:connector-curvature="0" />
	<polygon
   points="62.6,58.2 64.6,58.2 64.6,57.7 62,57.7 62,62.5 62.6,62.5 62.6,60.4 64.4,60.4 64.4,59.8 62.6,59.8 "
   id="polygon36" />
	<path
   d="m 69.7,60.6 c 0,1.1 -0.5,1.5 -1.2,1.5 -0.6,0 -1.1,-0.5 -1.1,-1.5 v -2.8 h -0.6 v 2.8 c 0,1.5 0.7,2.1 1.7,2.1 1,0 1.8,-0.6 1.8,-2.1 v -2.8 h -0.6 z"
   id="path38"
   inkscape:connector-curvature="0" />
	<path
   d="m 75.8,59.7 c 0,0.8 0,1.3 0.1,2 v 0 c -0.2,-0.5 -0.5,-1 -0.9,-1.6 l -1.5,-2.4 h -0.7 v 4.8 h 0.6 v -2.1 c 0,-0.8 0,-1.4 -0.1,-2 v 0 c 0.2,0.5 0.6,1.1 0.9,1.6 l 1.5,2.4 h 0.6 v -4.8 h -0.6 v 2.1 z"
   id="path40"
   inkscape:connector-curvature="0" />
	<path
   d="m 81.1,58.2 c 0.4,0 0.7,0.1 1,0.2 l 0.2,-0.5 c -0.2,-0.1 -0.5,-0.2 -1.1,-0.2 -1.5,0 -2.5,1 -2.5,2.5 0,1.6 1,2.4 2.4,2.4 0.6,0 1,-0.1 1.3,-0.2 l -0.1,-0.5 c -0.3,0.1 -0.6,0.2 -1,0.2 -1.2,0 -1.8,-0.8 -1.8,-1.9 -0.3,-1.3 0.5,-2 1.6,-2 z"
   id="path42"
   inkscape:connector-curvature="0" />
	<rect
   x="84.300003"
   y="57.700001"
   width="0.60000002"
   height="4.8000002"
   id="rect44" />
	<path
   d="m 89.3,57.6 c -1.3,0 -2.2,1 -2.2,2.5 0,1.5 0.9,2.4 2.2,2.4 1.2,0 2.2,-0.9 2.2,-2.5 0,-1.4 -0.8,-2.4 -2.2,-2.4 z m 0,4.5 c -1,0 -1.5,-0.9 -1.5,-1.9 0,-1.1 0.5,-2 1.5,-2 1,0 1.5,1 1.5,2 0,1 -0.5,1.9 -1.5,1.9 z"
   id="path46"
   inkscape:connector-curvature="0" />
	<path
   d="m 96.7,59.7 c 0,0.8 0,1.3 0.1,2 v 0 c -0.2,-0.5 -0.5,-1 -0.9,-1.6 l -1.5,-2.4 h -0.7 v 4.8 h 0.6 v -2.1 c 0,-0.8 0,-1.4 -0.1,-2 v 0 c 0.2,0.5 0.6,1.1 0.9,1.6 l 1.5,2.4 h 0.6 v -4.8 h -0.6 v 2.1 z"
   id="path48"
   inkscape:connector-curvature="0" />
	<path
   d="m 101,57.7 -1.6,4.8 h 0.6 l 0.5,-1.5 h 1.7 l 0.5,1.5 h 0.7 l -1.6,-4.8 z m -0.4,2.8 0.5,-1.4 c 0.1,-0.3 0.2,-0.6 0.2,-0.9 v 0 c 0.1,0.3 0.1,0.6 0.2,0.9 l 0.5,1.4 z"
   id="path50"
   inkscape:connector-curvature="0" />
	<polygon
   points="108.1,62 106.1,62 106.1,57.7 105.4,57.7 105.4,62.5 108.1,62.5 "
   id="polygon52" />
	<path
   d="m 123.9,58.2 c 0.4,0 0.7,0.1 1,0.2 l 0.1,-0.5 c -0.2,-0.1 -0.5,-0.2 -1.1,-0.2 -1.5,0 -2.5,1 -2.5,2.5 0,1.6 1,2.4 2.4,2.4 0.6,0 1,-0.1 1.3,-0.2 L 125,61.9 c -0.3,0.1 -0.6,0.2 -1,0.2 -1.2,0 -1.8,-0.8 -1.8,-1.9 -0.2,-1.3 0.6,-2 1.7,-2 z"
   id="path54"
   inkscape:connector-curvature="0" />
	<path
   d="m 130.2,59.7 c 0,0.8 0,1.3 0.1,2 v 0 c -0.2,-0.5 -0.5,-1 -0.9,-1.6 l -1.5,-2.4 h -0.7 v 4.8 h 0.6 v -2.1 c 0,-0.8 0,-1.4 -0.1,-2 v 0 c 0.2,0.5 0.6,1.1 0.9,1.6 l 1.5,2.4 h 0.6 v -4.8 h -0.6 v 2.1 z"
   id="path56"
   inkscape:connector-curvature="0" />
	<path
   d="m 135.2,60.2 v 0 c 0.5,-0.2 0.9,-0.6 0.9,-1.3 0,-0.4 -0.1,-0.7 -0.4,-0.9 -0.3,-0.3 -0.7,-0.4 -1.4,-0.4 -0.4,0 -0.9,0 -1.2,0.1 v 4.7 h 0.6 v -2.1 h 0.6 c 0.6,0 0.8,0.3 1,0.9 0.1,0.6 0.2,1 0.3,1.1 h 0.6 c -0.1,-0.2 -0.2,-0.6 -0.4,-1.3 0,-0.3 -0.2,-0.6 -0.6,-0.8 z M 134.4,60 h -0.6 v -1.8 c 0.1,0 0.3,-0.1 0.6,-0.1 0.7,0 1.1,0.3 1.1,0.9 0,0.6 -0.4,1 -1.1,1 z"
   id="path58"
   inkscape:connector-curvature="0" />
	<path
   d="m 140.3,60.1 v 0 c 0.6,-0.3 0.8,-0.7 0.8,-1.1 0,-0.6 -0.4,-1.1 -1.3,-1.1 -0.8,0 -1.4,0.5 -1.4,1.2 0,0.4 0.2,0.8 0.7,1 v 0 c -0.6,0.2 -0.9,0.7 -0.9,1.2 0,0.7 0.6,1.3 1.6,1.3 0.9,0 1.6,-0.5 1.6,-1.3 -0.2,-0.6 -0.5,-1 -1.1,-1.2 z M 138.9,59 c 0,-0.4 0.3,-0.7 0.8,-0.7 0.6,0 0.8,0.4 0.8,0.8 0,0.4 -0.3,0.7 -0.7,0.8 -0.6,-0.2 -0.9,-0.4 -0.9,-0.9 z m 0.8,3.2 c -0.6,0 -0.9,-0.4 -0.9,-0.9 0,-0.4 0.3,-0.8 0.8,-1 0.6,0.2 1,0.5 1,1 0,0.5 -0.4,0.9 -0.9,0.9 z"
   id="path60"
   inkscape:connector-curvature="0" />
	<path
   d="m 148.6,57.9 h -0.7 l -2.1,3 v 0.4 h 2.2 v 1.3 h 0.6 v -1.3 h 0.6 v -0.5 h -0.6 z m -0.6,1.3 v 1.5 h -1.5 v 0 l 1.1,-1.6 c 0.1,-0.2 0.2,-0.4 0.4,-0.7 v 0 c 0,0.3 0,0.6 0,0.8 z"
   id="path62"
   inkscape:connector-curvature="0" />
	<path
   d="m 153.2,60.1 v 0 c 0.6,-0.3 0.8,-0.7 0.8,-1.1 0,-0.6 -0.5,-1.1 -1.4,-1.1 -0.8,0 -1.4,0.5 -1.4,1.2 0,0.4 0.2,0.8 0.7,1 v 0 c -0.6,0.2 -0.9,0.7 -0.9,1.2 0,0.7 0.6,1.3 1.6,1.3 0.9,0 1.6,-0.5 1.6,-1.3 -0.1,-0.6 -0.4,-1 -1,-1.2 z M 151.8,59 c 0,-0.4 0.3,-0.7 0.8,-0.7 0.6,0 0.8,0.4 0.8,0.8 0,0.4 -0.3,0.7 -0.7,0.8 -0.6,-0.2 -0.9,-0.4 -0.9,-0.9 z m 0.8,3.2 c -0.6,0 -1,-0.4 -0.9,-0.9 0,-0.4 0.3,-0.8 0.8,-1 0.6,0.2 1,0.5 1,1 0,0.5 -0.4,0.9 -0.9,0.9 z"
   id="path64"
   inkscape:connector-curvature="0" />
	<polygon
   points="158.4,58.4 156.4,62.5 157.1,62.5 159.1,58.3 159.1,57.9 156.1,57.9 156.1,58.4 "
   id="polygon66" />
	<path
   d="m 163.3,59.8 c -0.3,-0.2 -0.6,-0.3 -1,-0.3 -0.2,0 -0.3,0 -0.4,0 l 0.2,-1.2 h 1.8 v -0.5 h -2.2 l -0.3,2.2 c 0.2,0 0.4,-0.1 0.6,-0.1 0.9,0 1.3,0.4 1.3,1 0,0.6 -0.5,1 -1.1,1 -0.4,0 -0.8,-0.1 -1,-0.3 l -0.2,0.5 c 0.2,0.1 0.6,0.3 1.2,0.3 1,0 1.7,-0.7 1.7,-1.6 0,-0.4 -0.3,-0.8 -0.6,-1 z"
   id="path68"
   inkscape:connector-curvature="0" />
</g>
<g
   id="g72">
</g>
</svg>