<svg id="Camada_1" data-name="Camada 1" xmlns="http://www.w3.org/2000/svg" viewBox="0 0 100 100"><title>br_maps</title><path d="M76.08,58a30.27,30.27,0,0,0,5-7.35,33.73,33.73,0,0,0,3.22-14.4A34.44,34.44,0,1,0,17.66,48.32a42.35,42.35,0,0,0,8.87,13.09l.6.61L47,83.07s3.12,3,5.94,0l3.73-3.93H67.51a2.88,2.88,0,0,1,2.62,2l1.17,3.06h0L73.13,89l.2.61c.3,1.1.4,3.52-4.73,3.52H29.72c-4.33,0-3.82-2.42-3.62-3.12l2.83-7.5.29-.76c.1-.1.1-.2.2-.4.71-1.81,1.41-2.32,1.82-2.42h2.11c3,0,.7-2.52.7-2.52L33,75.34a6.24,6.24,0,0,0-4.13-1.92h-1c-.6.1-1.71.71-2.62,3l-1,2.55L18.85,93.26S17.44,98.7,26,98.7H72.83s9.06-1.11,6.54-7.86l-3.61-9.58h0L74.16,77a5.57,5.57,0,0,0-5-3.52H61.47l11-11.68Zm-26-4.66A16.71,16.71,0,1,1,66.77,36.62,16.71,16.71,0,0,1,50.06,53.33Z" style="fill:#c3da56"/></svg>