<svg id="Camada_1" data-name="Camada 1" xmlns="http://www.w3.org/2000/svg" viewBox="0 0 100 100"><title>color_g</title><circle cx="50.23" cy="50.85" r="49.69" style="fill:#fc4d3f"/><path d="M38.58,46.31c0,.14,0,.25,0,.36,0,2.76,0,8.72,0,8.72h12.1a10.28,10.28,0,0,1-4.44,6.81,13,13,0,0,1-6.57,2.11,13.38,13.38,0,0,1-4.91-.57A13.62,13.62,0,0,1,25.43,52a13.14,13.14,0,0,1,.28-4.1A13.36,13.36,0,0,1,40.58,37.48a12.2,12.2,0,0,1,6.64,3.21l6.57-6.59a28.68,28.68,0,0,0-4-2.94,21.62,21.62,0,0,0-10.73-2.91c-.72,0-1.44,0-2.16.06a18,18,0,0,0-3.72.58A22.67,22.67,0,0,0,16.05,49.54a21.54,21.54,0,0,0,.48,6.09,22.39,22.39,0,0,0,8.84,13.51,22.09,22.09,0,0,0,12.07,4.27,23.77,23.77,0,0,0,7.41-.73A19.68,19.68,0,0,0,56,65.37c4.09-5.45,5.08-12.43,3.87-19.06Z" style="fill:#fff"/><polygon points="87.18 46.61 79.52 46.61 79.52 38.95 79.52 38.72 79.3 38.72 73.58 38.72 73.35 38.72 73.35 38.95 73.35 46.61 65.69 46.61 65.47 46.61 65.47 46.83 65.47 52.55 65.47 52.78 65.69 52.78 73.35 52.78 73.35 60.44 73.35 60.66 73.58 60.66 79.3 60.66 79.52 60.66 79.52 60.44 79.52 52.78 87.18 52.78 87.41 52.78 87.41 52.55 87.41 46.83 87.41 46.61 87.18 46.61" style="fill:#fff"/></svg>