<svg id="Camada_1" data-name="Camada 1" xmlns="http://www.w3.org/2000/svg" viewBox="0 0 100 100"><title>color_whatsapp</title><circle cx="50.42" cy="50.15" r="49.28" style="fill:#0b8f21"/><path d="M18,80.71c.35-1.36.66-2.55,1-3.73,1-3.79,2.1-7.58,3.09-11.38a2.8,2.8,0,0,0-.19-1.83A31.28,31.28,0,1,1,35.42,77a3.1,3.1,0,0,0-1.92-.21C25.21,78.82,19.69,80.38,18,80.71Zm7.29-7.19c3.12-.81,6-1.53,8.84-2.33a2.56,2.56,0,0,1,2.14.31,25.57,25.57,0,0,0,17.33,3.27,26.17,26.17,0,1,0-8.78-51.59C27.25,26.41,17.91,46,26.66,61.55a5.42,5.42,0,0,1,.58,5C26.47,68.72,26,71,25.31,73.52Z" style="fill:#fff;fill-rule:evenodd"/><path d="M57.67,63.91c-6.11-.21-15.85-5-22.51-16.62-2.37-4.12-2-8.82,1.44-12,1.17-1.09,2.64-.83,4-.59.34.05.69.57.86,1,.89,2,1.77,4,2.54,6.11.41,1.1-.35,2.12-1.93,4a1.34,1.34,0,0,0-.21,1.77,21.29,21.29,0,0,0,10.86,9.33,1.3,1.3,0,0,0,1.65-.44c2.5-3,2.76-3.94,4.07-3.32,6.33,3,6.82,3.15,6.85,3.87C65.52,62.21,60.64,64.13,57.67,63.91Z" style="fill:#fff;fill-rule:evenodd"/></svg>