<svg id="Camada_1" data-name="Camada 1" xmlns="http://www.w3.org/2000/svg" xmlns:xlink="http://www.w3.org/1999/xlink" viewBox="0 0 100 100"><defs><linearGradient id="Gradiente_sem_nome_28" x1="107.1" y1="0.28" x2="-27.4" y2="120.19" gradientTransform="translate(-10.29 12.97) rotate(-13.28)" gradientUnits="userSpaceOnUse"><stop offset="0.06" stop-color="#372091"/><stop offset="0.21" stop-color="#c82091"/><stop offset="0.49" stop-color="#f62b37"/><stop offset="0.62" stop-color="#ffc658"/></linearGradient></defs><title>color_Instagram</title><circle cx="50.57" cy="50.67" r="49.43" style="fill:url(#Gradiente_sem_nome_28)"/><path d="M81.13,35.21a16.48,16.48,0,0,0-5-10.6A17.2,17.2,0,0,0,64.72,20c-7.3-.4-24.63-.65-30.72.34-6.95,1.13-11.51,5.19-13.43,12.06-1.48,5.28-1.19,29.64-.33,34.86C21.42,74.4,25.64,79,32.72,80.8c4.9,1.26,29,1.1,34.38.23,7.15-1.16,11.75-5.36,13.6-12.42C82.12,63.18,81.63,40.1,81.13,35.21Zm-5.72,31C74.58,71.67,71,75,65.53,75.62c-5,.55-27.38.86-32-.44a10.21,10.21,0,0,1-7.73-8.78c-.7-4.27-.88-25.62,0-31.34.81-5.38,4.41-8.73,9.84-9.34s25.3-.68,30.57.12,8.77,4.44,9.36,9.91C76.1,40.84,76.25,60.77,75.41,66.24ZM50.59,34.76A15.93,15.93,0,1,0,66.5,50.69,15.93,15.93,0,0,0,50.59,34.76ZM50.48,61A10.3,10.3,0,1,1,60.87,50.76,10.3,10.3,0,0,1,50.48,61ZM70.86,34.15a3.73,3.73,0,1,1-3.72-3.73A3.72,3.72,0,0,1,70.86,34.15Z" style="fill:#fff"/><path d="M81.13,35.21a16.48,16.48,0,0,0-5-10.6A17.2,17.2,0,0,0,64.72,20c-7.3-.4-24.63-.65-30.72.34-6.95,1.13-11.51,5.19-13.43,12.06-1.48,5.28-1.19,29.64-.33,34.86C21.42,74.4,25.64,79,32.72,80.8c4.9,1.26,29,1.1,34.38.23,7.15-1.16,11.75-5.36,13.6-12.42C82.12,63.18,81.63,40.1,81.13,35.21Zm-5.72,31C74.58,71.67,71,75,65.53,75.62c-5,.55-27.38.86-32-.44a10.21,10.21,0,0,1-7.73-8.78c-.7-4.27-.88-25.62,0-31.34.81-5.38,4.41-8.73,9.84-9.34s25.3-.68,30.57.12,8.77,4.44,9.36,9.91C76.1,40.84,76.25,60.77,75.41,66.24ZM50.59,34.76A15.93,15.93,0,1,0,66.5,50.69,15.93,15.93,0,0,0,50.59,34.76ZM50.48,61A10.3,10.3,0,1,1,60.87,50.76,10.3,10.3,0,0,1,50.48,61ZM70.86,34.15a3.73,3.73,0,1,1-3.72-3.73A3.72,3.72,0,0,1,70.86,34.15Z" style="fill:#fff"/></svg>