<svg id="Camada_1" data-name="Camada 1" xmlns="http://www.w3.org/2000/svg" viewBox="0 0 100 100">
	<title>
		line_whats
	</title>
	<path d="M100,47.85a49,49,0,0,0-98-.93A13.31,13.31,0,0,0,1.84,49,48.58,48.58,0,0,0,8.89,74.19L0,100.31,27.21,91.7A49.22,49.22,0,0,0,100,49c0-.43,0-.76,0-1.19Zm-26.56,11c-1.25-.59-7.1-3.52-8.19-3.95s-2-.6-2.76.65a52.07,52.07,0,0,1-3.79,4.6c-.71.87-1.41.93-2.55.38a30.31,30.31,0,0,1-9.7-6,35.68,35.68,0,0,1-6.72-8.18c-.65-1.3-.11-1.85.48-2.55A14.16,14.16,0,0,0,42,41.83a2.27,2.27,0,0,0,.43-.54,11.19,11.19,0,0,0,.76-1.41,1.87,1.87,0,0,0-.11-2.06c-.22-.6-2.65-6.56-3.69-8.89s-2-2-2.65-2-1.52-.1-2.33-.1a4.15,4.15,0,0,0-3.2,1.51,12.89,12.89,0,0,0-4.28,10,12.61,12.61,0,0,0,.7,4,26.75,26.75,0,0,0,4.23,8.29c.6.81,8.29,13.23,20.54,18s12.31,3.15,14.47,3S74,68.77,75,65.89s1-5.14.65-5.69a7,7,0,0,0-2.28-1.3ZM50.9,90a41.14,41.14,0,0,1-22.66-6.77l-15.83,5,5.1-15.23A40.57,40.57,0,0,1,9.65,49a32.84,32.84,0,0,1,.21-4A41.27,41.27,0,0,1,92,45.84a31.59,31.59,0,0,1,.11,3.2A41.17,41.17,0,0,1,50.9,90Z" style="fill:#c3da56;fill-rule:evenodd" />
</svg>
