<svg id="Camada_1" data-name="Camada 1" xmlns="http://www.w3.org/2000/svg" viewBox="0 0 100 100">
	<title>
		line_g
	</title>
	<path d="M50,1A49.54,49.54,0,1,1,15,15.46,49.31,49.31,0,0,1,50,1ZM82.27,18.2A45.64,45.64,0,1,0,95.65,50.47,45.51,45.51,0,0,0,82.27,18.2Z" style="fill:#fff" />
	<path d="M55,47c-3.64,0-7.29,0-10.93,0-1,0-2.12,0-3.13,0-.22,0-.55.25-.55.38,0,2.12,0,4.23,0,6.42h8.91a4.3,4.3,0,0,1-.3,1.07C47.67,59,43.47,61,39,60.26a9.8,9.8,0,0,1-8-11.68,10.69,10.69,0,0,1,.65-2.28,9.85,9.85,0,0,1,11-5.51A9.1,9.1,0,0,1,46.74,43l4.9-4.91a2.2,2.2,0,0,1-.41-.36A16,16,0,0,0,37.69,34,16.83,16.83,0,0,0,24.8,56.5,16.88,16.88,0,0,0,42.43,67.11a14.92,14.92,0,0,0,9.68-4.52C56,58.48,57,53.54,56.36,48.08,56.25,47.18,55.9,47,55,47Zm16.59.52H70.54v-1c0-1.4,0-2.8,0-4.22,0-.22-.28-.63-.39-.63-1.26-.06-2.55-.06-3.89-.06v5.84h-5.9v1.07c.06,1,.09,2.11.17,3.15,1,.06,2,.11,3.1.11.85,0,1.72,0,2.66,0v5.76c1.45,0,2.79,0,4.25,0V51.81h5.75V47.54Z" style="fill:#fff;fill-rule:evenodd" />
</svg>
