<svg id="Camada_1" data-name="Camada 1" xmlns="http://www.w3.org/2000/svg" viewBox="0 0 100 100">
	<title>
		line_insta
	</title>
	<path d="M49.59,1.36A49.1,49.1,0,0,1,84.31,85.19,49.1,49.1,0,1,1,49.59,1.36Zm32,17.11a45.33,45.33,0,1,0,13.24,32,45.21,45.21,0,0,0-13.24-32Z" style="fill:#c3da56" />
	<path d="M49.59,34.09A16.38,16.38,0,1,0,66,50.47,16.4,16.4,0,0,0,49.59,34.09ZM61.68,50.47A12.08,12.08,0,1,1,49.59,38.38,12.11,12.11,0,0,1,61.68,50.47Z" style="fill:#c3da56" />
	<path d="M62.59,25.36h-26A12.16,12.16,0,0,0,24.48,37.5v26A12.15,12.15,0,0,0,36.62,75.6h26A12.14,12.14,0,0,0,74.72,63.47v-26A12.15,12.15,0,0,0,62.59,25.36ZM70.82,37.5v26a8.24,8.24,0,0,1-8.23,8.22h-26a8.23,8.23,0,0,1-8.23-8.22v-26a8.24,8.24,0,0,1,8.23-8.23h26A8.24,8.24,0,0,1,70.82,37.5Z" style="fill:#c3da56" />
	<path d="M65.17,31.94A3.06,3.06,0,1,0,68.23,35,3.07,3.07,0,0,0,65.17,31.94Z" style="fill:#c3da56" />
</svg>
