<svg id="Camada_1" data-name="Camada 1" xmlns="http://www.w3.org/2000/svg" viewBox="0 0 100 100">
	<title>
		line_facebook
	</title>
	<path d="M51.15,1.62A48.86,48.86,0,1,1,16.61,15.93,48.63,48.63,0,0,1,51.15,1.62ZM83,18.63A45.07,45.07,0,1,0,96.19,50.47,45,45,0,0,0,83,18.63Z" style="fill:#fff" />
	<path d="M54.74,41.68V37.62A2.13,2.13,0,0,1,57,35.21h5.68V26.55H54.82c-8.69,0-10.64,6.41-10.64,10.58v4.55h-5V51.8h5.1V77.08H54.36V51.8h7.48l.33-4,.6-6.14Z" style="fill:#fff;fill-rule:evenodd" />
</svg>
