<svg id="Camada_1" data-name="Camada 1" xmlns="http://www.w3.org/2000/svg" viewBox="0 0 100 100"><title>verde_Instagram</title><circle cx="50" cy="50" r="48.25" style="fill:#006838"/><path d="M62,27.1H38.51A11.46,11.46,0,0,0,27.1,38.51V62A11.46,11.46,0,0,0,38.51,73.4H62A11.46,11.46,0,0,0,73.4,62V38.51A11.46,11.46,0,0,0,62,27.1ZM50.25,65.27A13.72,13.72,0,1,1,64,51.55,13.74,13.74,0,0,1,50.25,65.27ZM64,38.49a3.26,3.26,0,1,1,3.26-3.26A3.26,3.26,0,0,1,64,38.49Z" style="fill:none"/><path d="M50.25,42.45a9.11,9.11,0,1,0,9.11,9.1A9.12,9.12,0,0,0,50.25,42.45Z" style="fill:none"/><path d="M50.25,37.84A13.72,13.72,0,1,0,64,51.55,13.73,13.73,0,0,0,50.25,37.84Zm0,22.82a9.11,9.11,0,1,1,9.11-9.11A9.12,9.12,0,0,1,50.25,60.66Z" style="fill:#fff"/><circle cx="63.97" cy="35.23" r="3.26" style="fill:#fff"/><path d="M60.89,21.84H39.81a17,17,0,0,0-17,17V61.66a17,17,0,0,0,17,17H60.89a17,17,0,0,0,17-17V38.84A17,17,0,0,0,60.89,21.84ZM73.4,62A11.46,11.46,0,0,1,62,73.4H38.51A11.46,11.46,0,0,1,27.1,62V38.51A11.46,11.46,0,0,1,38.51,27.1H62A11.46,11.46,0,0,1,73.4,38.51Z" style="fill:#fff"/></svg>