<svg id="Camada_1" data-name="Camada 1" xmlns="http://www.w3.org/2000/svg" viewBox="0 0 100 100"><title>verde_facebook</title><circle cx="50" cy="50" r="48.25" style="fill:#006838"/><path d="M57.54,46.54c-3.64.06-7.29.06-10.94.06-1,0-2.11-.06-3.12,0-.22,0-.55.24-.55.38,0,2.11,0,4.22,0,6.42h8.91a4.34,4.34,0,0,1-.3,1.06c-1.34,4.06-5.54,6.06-10.06,5.32a9.8,9.8,0,0,1-8-11.68,10.62,10.62,0,0,1,.66-2.27,9.84,9.84,0,0,1,11-5.51,8.91,8.91,0,0,1,4.19,2.16c1.65-1.64,3.21-3.21,4.91-4.91a2.13,2.13,0,0,1-.41-.35,16,16,0,0,0-13.54-3.7A16.83,16.83,0,0,0,27.3,56,16.88,16.88,0,0,0,44.93,66.64a14.93,14.93,0,0,0,9.68-4.53c3.86-4.11,4.88-9,4.25-14.5-.11-.9-.47-1.07-1.32-1.07Zm16.59.52H73v-1c0-1.39,0-2.79,0-4.22,0-.22-.27-.63-.38-.63-1.26,0-2.55,0-3.89,0V47h-5.9v1.07c.06,1,.09,2.11.17,3.15,1,.05,2,.11,3.09.11.86,0,1.73,0,2.66,0V57.1c1.46,0,2.8,0,4.25,0V51.34h5.76V47.06Z" style="fill:#fff;fill-rule:evenodd"/></svg>